<svg width="202" height="201" viewBox="0 0 202 201" fill="none" xmlns="http://www.w3.org/2000/svg">
<g clip-path="url(#clip0_944_244)">
<path d="M127 3C132.445 4.485 132.445 4.485 138 6C139.647 6.44191 139.647 6.44191 141.327 6.89275C145.67 8.43096 148.299 9.69187 150.523 13.8419C151.717 17.5421 152.583 21.2471 153.355 25.0508C153.672 26.4346 153.993 27.8175 154.317 29.1995C155.156 32.8194 155.938 36.4493 156.709 40.0842C157.507 43.7989 158.358 47.5013 159.205 51.2051C160.855 58.4591 162.446 65.7245 164 73C166.188 69.7184 167.582 66.3456 169.039 62.707C169.325 62.001 169.61 61.295 169.905 60.5676C170.815 58.3171 171.72 56.0649 172.625 53.8125C173.242 52.2844 173.859 50.7564 174.477 49.2285C175.988 45.4871 177.495 41.744 179 38C185.252 40.084 188.743 49.5826 191.715 55.2969C204.551 82.0807 205.151 110.748 195.406 138.527C193.352 143.599 190.83 148.322 188 153C183.86 153 181.544 150.832 178.312 148.5C177.403 147.856 177.403 147.856 176.475 147.199C174.979 146.139 173.489 145.07 172 144C172.548 139.831 173.5 136.567 175.375 132.812C180.292 122.367 182.186 111.801 182.125 100.312C182.129 99.5668 182.133 98.8211 182.137 98.0527C182.13 94.5306 181.947 91.3872 181 88C180.501 89.0341 180.001 90.0681 179.487 91.1335C177.628 94.9832 175.765 98.8313 173.902 102.679C173.097 104.342 172.293 106.005 171.49 107.669C170.332 110.066 169.172 112.461 168.012 114.855C167.655 115.595 167.299 116.335 166.932 117.097C165.112 120.845 163.218 124.466 161 128C150.565 117.565 151.24 100.135 147 86C146.67 120.65 146.34 155.3 146 191C136 196 136 196 127 198C127 133.65 127 69.3 127 3Z" fill="white"/>
<path d="M75 3C75 67.35 75 131.7 75 198C66 196 66 196 56 191C56 164.27 56 137.54 56 110C44.12 110 32.24 110 20 110C22.942 123.543 22.942 123.543 27.75 136.062C29.3588 139.497 29.3588 139.497 31 143C23.575 148.445 23.575 148.445 16 154C12.3162 150.316 10.4798 147.394 8.50003 142.75C8.19887 142.052 7.89771 141.354 7.58743 140.635C-2.8714 115.498 -3.00762 86.9149 7.34768 61.7734C17.9963 37.0625 36.6323 17.4232 61.6407 6.97656C71.7831 3 71.7831 3 75 3ZM48.375 37.9375C47.8352 38.4411 47.2954 38.9447 46.7393 39.4636C31.8065 53.5438 22.2946 69.3492 20 90C31.88 90 43.76 90 56 90C56 71.19 56 52.38 56 33C52.6623 33 50.7048 35.7598 48.375 37.9375Z" fill="white"/>
<path d="M92 0C97.94 0 103.88 0 110 0C110 66.33 110 132.66 110 201C104.06 201 98.12 201 92 201C92 134.67 92 68.34 92 0Z" fill="white"/>
</g>
<defs>
<clipPath id="clip0_944_244">
<rect width="202" height="201" fill="white"/>
</clipPath>
</defs>
</svg>
