<svg width="487" height="201" viewBox="0 0 487 201" fill="none" xmlns="http://www.w3.org/2000/svg">
<g clip-path="url(#clip0_944_262)">
<path d="M127 3C132.445 4.485 132.445 4.485 138 6C139.647 6.44191 139.647 6.44191 141.327 6.89275C145.67 8.43096 148.299 9.69187 150.523 13.8419C151.717 17.5421 152.583 21.2471 153.355 25.0508C153.672 26.4346 153.993 27.8175 154.317 29.1995C155.156 32.8194 155.938 36.4493 156.709 40.0842C157.507 43.7989 158.358 47.5013 159.205 51.2051C160.855 58.4591 162.446 65.7245 164 73C166.188 69.7184 167.582 66.3456 169.039 62.707C169.325 62.001 169.61 61.295 169.905 60.5676C170.815 58.3171 171.72 56.0649 172.625 53.8125C173.242 52.2844 173.859 50.7564 174.477 49.2285C175.988 45.4871 177.495 41.744 179 38C185.252 40.084 188.743 49.5826 191.715 55.2969C204.551 82.0807 205.151 110.748 195.406 138.527C193.352 143.599 190.83 148.322 188 153C183.86 153 181.544 150.832 178.312 148.5C177.403 147.856 177.403 147.856 176.475 147.199C174.979 146.139 173.489 145.07 172 144C172.548 139.831 173.5 136.567 175.375 132.812C180.292 122.367 182.186 111.801 182.125 100.312C182.129 99.5668 182.133 98.8211 182.137 98.0527C182.13 94.5306 181.947 91.3872 181 88C180.501 89.0341 180.001 90.0681 179.487 91.1335C177.628 94.9832 175.765 98.8313 173.902 102.679C173.097 104.342 172.293 106.005 171.49 107.669C170.332 110.066 169.172 112.461 168.012 114.855C167.655 115.595 167.299 116.335 166.932 117.097C165.112 120.845 163.218 124.466 161 128C150.565 117.565 151.24 100.135 147 86C146.67 120.65 146.34 155.3 146 191C136 196 136 196 127 198C127 133.65 127 69.3 127 3Z" fill="white"/>
<path d="M75 3C75 67.35 75 131.7 75 198C66 196 66 196 56 191C56 164.27 56 137.54 56 110C44.12 110 32.24 110 20 110C22.942 123.543 22.942 123.543 27.75 136.062C29.3588 139.497 29.3588 139.497 31 143C23.575 148.445 23.575 148.445 16 154C12.3162 150.316 10.4798 147.394 8.50003 142.75C8.19887 142.052 7.89771 141.354 7.58743 140.635C-2.8714 115.498 -3.00762 86.9149 7.34768 61.7734C17.9963 37.0625 36.6323 17.4232 61.6407 6.97656C71.7831 3 71.7831 3 75 3ZM48.375 37.9375C47.8352 38.4411 47.2954 38.9447 46.7393 39.4636C31.8065 53.5438 22.2946 69.3492 20 90C31.88 90 43.76 90 56 90C56 71.19 56 52.38 56 33C52.6623 33 50.7048 35.7598 48.375 37.9375Z" fill="white"/>
<path d="M92 0C97.94 0 103.88 0 110 0C110 66.33 110 132.66 110 201C104.06 201 98.12 201 92 201C92 134.67 92 68.34 92 0Z" fill="white"/>
<path d="M415 139C419.166 138.918 423.332 138.835 427.625 138.75C428.928 138.714 430.231 138.677 431.573 138.64C442.183 138.538 442.183 138.538 447 143C450.6 146.96 450.498 151.209 450.359 156.332C449.829 160.269 448.68 162.091 446 165C445.01 165.33 444.02 165.66 443 166C443.577 167.132 444.155 168.264 444.75 169.43C445.5 170.911 446.25 172.393 447 173.875C447.382 174.621 447.763 175.368 448.156 176.137C448.698 177.21 448.698 177.21 449.25 178.305C449.585 178.965 449.92 179.624 450.266 180.304C451 182 451 182 451 184C447.04 184 443.08 184 439 184C437.828 181.711 436.663 179.419 435.5 177.125C435.166 176.474 434.832 175.823 434.488 175.152C432 170.227 432 170.227 432 168C430.02 168 428.04 168 426 168C426 173.28 426 178.56 426 184C422.37 184 418.74 184 415 184C415 169.15 415 154.3 415 139ZM426 148C426 151.63 426 155.26 426 159C427.774 159.041 429.548 159.083 431.375 159.125C432.373 159.148 433.37 159.171 434.398 159.195C437.163 159.272 437.163 159.272 439 157C439.417 153.5 439.417 153.5 439 150C435.686 147.791 434.655 147.775 430.812 147.875C429.224 147.916 427.636 147.958 426 148Z" fill="white"/>
<path d="M291 78C294.63 78 298.26 78 302 78C302 83.94 302 89.88 302 96C307.28 96 312.56 96 318 96C318 90.06 318 84.12 318 78C321.3 78 324.6 78 328 78C328 92.85 328 107.7 328 123C324.7 123 321.4 123 318 123C318 117.06 318 111.12 318 105C312.72 105 307.44 105 302 105C302 110.94 302 116.88 302 123C298.37 123 294.74 123 291 123C291 108.15 291 93.3 291 78Z" fill="white"/>
<path d="M457 139C466.9 139 476.8 139 487 139C487 142.3 487 145.6 487 149C480.4 149 473.8 149 467 149C467 151.31 467 153.62 467 156C472.94 156 478.88 156 485 156C485 159.3 485 162.6 485 166C479.06 166 473.12 166 467 166C467 168.64 467 171.28 467 174C473.6 174 480.2 174 487 174C487 177.3 487 180.6 487 184C477.1 184 467.2 184 457 184C457 169.15 457 154.3 457 139Z" fill="white"/>
<path d="M335 78C345.23 78 355.46 78 366 78C366 81.3 366 84.6 366 88C359.07 88 352.14 88 345 88C345 90.64 345 93.28 345 96C350.94 96 356.88 96 363 96C363 98.97 363 101.94 363 105C357.06 105 351.12 105 345 105C345 107.97 345 110.94 345 114C351.93 114 358.86 114 366 114C366 116.97 366 119.94 366 123C355.77 123 345.54 123 335 123C335 108.15 335 93.3 335 78Z" fill="white"/>
<path d="M293 17C303.23 17 313.46 17 324 17C324 20.3 324 23.6 324 27C317.07 27 310.14 27 303 27C303 29.64 303 32.28 303 35C308.94 35 314.88 35 321 35C321 37.97 321 40.94 321 44C315.06 44 309.12 44 303 44C303 46.97 303 49.94 303 53C309.93 53 316.86 53 324 53C324 55.97 324 58.94 324 62C313.77 62 303.54 62 293 62C293 47.15 293 32.3 293 17Z" fill="white"/>
<path d="M269.5 16.5625C271.403 16.5644 271.403 16.5644 273.344 16.5664C278.194 17.1416 281.666 18.4437 284.875 22.1875C285.246 22.7856 285.618 23.3837 286 24C284.02 25.98 282.04 27.96 280 30C275.25 28.125 275.25 28.125 273 27C271.46 26.9305 269.917 26.9155 268.375 26.9375C267.558 26.9465 266.74 26.9555 265.898 26.9648C265.272 26.9764 264.645 26.988 264 27C264.33 28.65 264.66 30.3 265 32C265.953 32.2539 266.905 32.5079 267.887 32.7695C269.141 33.1137 270.395 33.4579 271.688 33.8125C273.55 34.3172 273.55 34.3172 275.449 34.832C279.496 36.163 282.82 37.2852 285.293 40.8789C286.941 45.8237 286.802 51.2043 284.688 55.9375C284.131 56.6181 283.574 57.2987 283 58C282.567 58.5569 282.134 59.1137 281.688 59.6875C277.066 63.2819 271.544 63.4872 265.898 63.3867C261.131 62.7506 256.798 60.9696 253 58C252.67 56.68 252.34 55.36 252 54C254.31 52.02 256.62 50.04 259 48C259.897 48.99 259.897 48.99 260.812 50C265.442 52.9045 269.673 52.3359 275 52C274.67 50.02 274.34 48.04 274 46C272.891 45.7576 271.783 45.5153 270.641 45.2656C269.177 44.9278 267.713 44.5893 266.25 44.25C265.156 44.0141 265.156 44.0141 264.039 43.7734C259.63 42.7313 256.843 41.7616 254 38C252.351 33.0526 252.175 28.062 254.125 23.1875C258.603 17.9628 262.707 16.4589 269.5 16.5625Z" fill="white"/>
<path d="M398 17C407.9 17 417.8 17 428 17C428 20.3 428 23.6 428 27C421.4 27 414.8 27 408 27C408 29.64 408 32.28 408 35C413.94 35 419.88 35 426 35C426 37.97 426 40.94 426 44C420.06 44 414.12 44 408 44C408 46.97 408 49.94 408 53C414.6 53 421.2 53 428 53C428 55.97 428 58.94 428 62C418.1 62 408.2 62 398 62C398 47.15 398 32.3 398 17Z" fill="white"/>
<path d="M373 139C376.3 139 379.6 139 383 139C383.015 139.954 383.029 140.907 383.044 141.89C383.102 145.429 383.179 148.968 383.262 152.507C383.296 154.039 383.324 155.57 383.346 157.102C383.38 159.304 383.432 161.505 383.488 163.707C383.495 164.392 383.501 165.076 383.508 165.781C383.595 168.598 383.702 170.563 385.313 172.925C388.255 174.8 390.64 174.48 394 174C397.13 170.12 397.408 166.837 397.512 161.949C397.53 161.29 397.548 160.632 397.566 159.953C397.62 157.864 397.654 155.776 397.688 153.688C397.721 152.265 397.755 150.842 397.791 149.42C397.876 145.947 397.943 142.474 398 139C401.3 139 404.6 139 408 139C408.075 143.553 408.129 148.106 408.165 152.66C408.18 154.206 408.2 155.752 408.226 157.297C408.494 173.528 408.494 173.528 405 180C399.715 184.481 394.94 185.331 388.121 185.215C383.012 184.697 379.153 183.182 375.563 179.5C372.781 175.049 372.867 171.13 372.902 166.051C372.904 165.278 372.905 164.506 372.907 163.71C372.912 161.244 372.925 158.778 372.938 156.312C372.943 154.64 372.947 152.967 372.951 151.295C372.962 147.197 372.979 143.098 373 139Z" fill="white"/>
<path d="M291 139C294.3 139 297.6 139 301 139C301.015 139.883 301.029 140.765 301.044 141.675C301.105 144.964 301.18 148.253 301.262 151.543C301.296 152.964 301.324 154.384 301.346 155.805C301.38 157.854 301.432 159.901 301.488 161.949C301.514 163.18 301.541 164.411 301.568 165.678C302.032 169.249 302.745 171.206 305 174C308.36 174.48 310.745 174.8 313.687 172.925C315.661 170.032 315.48 167.094 315.512 163.707C315.53 163.001 315.548 162.295 315.566 161.568C315.62 159.316 315.654 157.065 315.687 154.812C315.721 153.284 315.755 151.756 315.791 150.229C315.876 146.486 315.943 142.743 316 139C319.3 139 322.6 139 326 139C326.074 143.875 326.129 148.749 326.165 153.624C326.18 155.281 326.2 156.937 326.226 158.594C326.263 160.982 326.28 163.369 326.293 165.758C326.308 166.492 326.324 167.227 326.34 167.984C326.342 173.536 324.949 177.272 321.75 181.75C316.93 185.193 310.741 185.667 305 185C300 184.018 296.858 183.008 293.5 179.062C291.065 174.09 290.862 169.879 290.902 164.391C290.904 163.664 290.905 162.937 290.907 162.188C290.912 159.875 290.925 157.563 290.937 155.25C290.942 153.678 290.947 152.107 290.951 150.535C290.962 146.69 290.979 142.845 291 139Z" fill="white"/>
<path d="M358 17C368.89 17 379.78 17 391 17C391 28 391 28 387.688 32.3125C386.968 33.0202 386.249 33.7279 385.508 34.457C382.405 37.6034 379.757 41.0038 377.062 44.5C372.083 50.9166 372.083 50.9166 371 52C377.93 52.33 384.86 52.66 392 53C392 55.97 392 58.94 392 62C380.45 62 368.9 62 357 62C357 52 357 52 358.363 49.5469C359.007 48.9539 359.65 48.3609 360.312 47.75C364.201 43.8755 367.59 39.8387 370.938 35.5C375.919 29.0805 375.919 29.0805 377 28C370.73 27.67 364.46 27.34 358 27C358 23.7 358 20.4 358 17Z" fill="white"/>
<path d="M254 139C263.9 139 273.8 139 284 139C284 142.3 284 145.6 284 149C277.73 149 271.46 149 265 149C265 151.64 265 154.28 265 157C270.28 157 275.56 157 281 157C281 160.3 281 163.6 281 167C275.72 167 270.44 167 265 167C265 172.61 265 178.22 265 184C261.37 184 257.74 184 254 184C254 169.15 254 154.3 254 139Z" fill="white"/>
<path d="M332 139C343.55 139 355.1 139 367 139C367 142.3 367 145.6 367 149C363.04 149 359.08 149 355 149C355 160.55 355 172.1 355 184C351.37 184 347.74 184 344 184C344 172.45 344 160.9 344 149C340.04 149 336.08 149 332 149C332 145.7 332 142.4 332 139Z" fill="white"/>
<path d="M251 78C262.22 78 273.44 78 285 78C285 81.3 285 84.6 285 88C281.04 88 277.08 88 273 88C273 99.55 273 111.1 273 123C269.7 123 266.4 123 263 123C263 111.45 263 99.9 263 88C259.04 88 255.08 88 251 88C251 84.7 251 81.4 251 78Z" fill="white"/>
<path d="M330 17C337.26 17 344.52 17 352 17C352 19.97 352 22.94 352 26C350.02 26 348.04 26 346 26C346 35.24 346 44.48 346 54C347.98 54 349.96 54 352 54C352 56.64 352 59.28 352 62C344.74 62 337.48 62 330 62C330 59.36 330 56.72 330 54C331.98 54 333.96 54 336 54C336 44.76 336 35.52 336 26C334.02 26 332.04 26 330 26C330 23.03 330 20.06 330 17Z" fill="white"/>
</g>
<defs>
<clipPath id="clip0_944_262">
<rect width="487" height="201" fill="white"/>
</clipPath>
</defs>
</svg>
